<?xml version="1.0" standalone="no"?>
<!DOCTYPE svg PUBLIC "-//W3C//DTD SVG 20010904//EN"
 "http://www.w3.org/TR/2001/REC-SVG-20010904/DTD/svg10.dtd">
<svg version="1.0" xmlns="http://www.w3.org/2000/svg"
 width="626.000000pt" height="361.000000pt" viewBox="0 0 626.000000 361.000000"
 preserveAspectRatio="xMidYMid meet">

<g transform="translate(0.000000,361.000000) scale(0.100000,-0.100000)"
fill="#000000" stroke="none">
<path d="M640 3566 c-105 -30 -253 -133 -339 -237 -25 -30 -52 -63 -60 -73
-15 -18 -15 -18 7 -7 22 12 23 11 17 -8 -8 -26 10 -28 25 -3 9 15 10 14 5 -5
-4 -14 -2 -23 4 -23 6 0 11 6 11 13 0 6 8 -3 17 -21 12 -26 18 -30 30 -21 7 7
16 9 19 6 4 -3 -23 -43 -60 -89 -36 -45 -66 -85 -66 -89 0 -6 24 -13 84 -25
10 -3 24 -12 31 -21 8 -10 19 -14 30 -10 12 5 16 3 12 -7 -4 -10 -1 -13 10 -9
8 3 19 0 23 -7 7 -11 11 -11 24 0 9 7 18 11 21 8 2 -2 -21 -24 -51 -48 -106
-85 -277 -280 -244 -280 4 0 10 5 12 10 2 6 12 3 23 -7 11 -10 34 -24 50 -32
28 -12 52 -25 108 -54 22 -12 63 -45 102 -83 12 -11 27 -18 33 -16 7 2 12 -1
12 -7 0 -6 -31 -26 -69 -45 -70 -36 -158 -56 -241 -56 -40 0 -153 20 -201 35
-18 6 -19 -8 -19 -389 l0 -395 40 -12 c22 -7 40 -16 40 -21 0 -4 9 -8 19 -8
11 0 23 -5 26 -10 3 -5 14 -10 25 -10 10 0 48 -14 85 -30 37 -16 78 -30 92
-30 13 0 21 -4 18 -10 -8 -13 1 -13 25 0 16 8 18 8 14 -5 -4 -8 -11 -15 -17
-15 -6 0 -7 -3 -4 -6 4 -4 13 -1 22 6 10 9 15 9 15 1 0 -22 -216 -227 -307
-291 l-92 -65 -1 -73 0 -73 53 7 c70 9 190 48 257 86 127 70 311 232 295 259
-5 7 -4 10 3 5 15 -9 82 92 75 112 -4 10 -2 13 5 8 8 -5 10 -2 6 9 -6 14 -8
14 -21 -2 -13 -16 -14 -15 -8 12 4 21 3 26 -4 16 -8 -12 -11 -9 -16 12 -4 15
-11 27 -15 27 -4 0 -26 30 -49 66 l-42 66 16 57 c55 194 57 206 58 341 1 139
-17 266 -53 378 l-17 52 32 20 c30 18 102 91 173 173 25 29 36 36 46 28 7 -6
16 -8 19 -4 4 3 9 -1 13 -10 3 -9 12 -13 21 -10 13 5 15 -1 11 -33 -3 -21 -8
-47 -12 -57 -6 -13 -5 -16 8 -11 9 3 16 1 16 -5 0 -6 13 -11 29 -11 17 0 33
-4 36 -10 3 -5 17 -10 30 -10 13 0 27 -5 31 -11 3 -6 31 -22 60 -35 34 -15 54
-30 54 -40 0 -15 2 -15 22 2 21 19 21 19 14 0 -5 -16 -4 -17 9 -6 9 7 14 19
11 26 -3 8 0 11 8 8 8 -3 30 31 60 95 52 109 81 145 96 121 5 -8 12 -11 16 -8
4 4 16 2 27 -3 11 -6 34 -13 51 -16 17 -2 41 -11 53 -19 47 -30 64 -4 143 221
29 83 63 172 77 198 l24 48 82 -8 c45 -4 177 -8 292 -7 184 0 220 3 290 22
114 32 165 53 165 68 0 8 5 14 11 14 5 0 7 -5 3 -11 -4 -7 12 -2 34 11 23 13
40 25 38 28 -3 2 -11 0 -18 -4 -18 -12 -68 -14 -68 -3 0 5 4 9 9 9 16 0 21 31
10 52 -9 17 -8 23 4 30 9 5 14 14 11 21 -2 7 4 24 16 37 11 13 20 35 20 49 0
14 3 37 7 50 6 23 7 23 14 5 7 -16 8 -15 8 7 1 15 8 42 16 62 8 19 11 37 8 41
-4 3 -1 6 5 6 6 0 9 7 6 15 -11 26 -43 16 -107 -33 -91 -71 -146 -107 -225
-147 -76 -38 -252 -99 -260 -90 -3 3 -2 5 3 5 4 0 3 6 -3 13 -8 10 -1 22 28
51 22 21 40 44 40 51 0 16 123 125 141 125 7 0 9 3 5 7 -3 4 6 12 21 19 41 18
-1622 18 -1687 0z"/>
<path d="M6152 2659 c-190 -32 -423 -189 -553 -373 -37 -53 -46 -72 -39 -86 5
-9 6 -21 2 -26 -4 -5 2 -2 12 6 17 14 18 13 12 -6 -5 -16 3 -32 33 -65 22 -24
46 -57 53 -74 6 -16 16 -33 21 -36 5 -4 -4 -51 -21 -110 -63 -212 -65 -399 -5
-629 21 -85 24 -105 12 -108 -8 -2 -62 -53 -120 -113 -95 -97 -107 -107 -112
-87 -5 18 -9 20 -19 10 -17 -17 -31 -15 -24 4 4 12 2 15 -9 10 -18 -6 -21 34
-5 64 11 20 -3 36 -32 39 -10 0 -26 2 -35 2 -10 1 -25 8 -33 15 -9 7 -39 18
-68 25 -33 7 -56 18 -62 30 -6 10 -17 19 -24 19 -8 0 -21 10 -30 23 l-17 22
12 -24 c8 -17 8 -26 -1 -35 -8 -8 -10 -7 -5 5 4 10 2 20 -3 23 -14 8 -45 -31
-36 -45 4 -7 3 -10 -3 -6 -6 4 -33 -37 -64 -97 -37 -73 -57 -102 -65 -95 -6 5
-14 6 -17 2 -4 -3 -12 -1 -19 5 -7 5 -30 13 -51 17 -20 4 -40 11 -43 16 -7 12
-61 11 -69 -1 -4 -6 -10 -8 -15 -5 -11 7 -27 -30 -87 -200 -25 -71 -58 -159
-74 -194 l-29 -64 -57 7 c-241 29 -465 24 -614 -14 -77 -20 -224 -79 -216 -87
2 -2 15 0 28 5 13 5 33 6 44 1 l20 -8 -20 -1 c-11 -2 -26 -2 -33 -1 -10 2 -10
-2 -1 -18 16 -24 -5 -97 -36 -123 -14 -13 -17 -20 -8 -26 8 -5 9 -13 3 -22 -6
-8 -10 -25 -10 -37 0 -13 -4 -23 -8 -23 -9 0 -29 -67 -39 -127 -8 -47 15 -43
89 18 89 71 208 142 313 184 97 39 168 59 159 44 -3 -5 2 -9 11 -9 15 0 15 -2
1 -15 -8 -8 -17 -24 -21 -35 -3 -10 -15 -22 -26 -25 -10 -4 -19 -14 -19 -23 0
-9 -16 -28 -35 -41 -19 -13 -35 -29 -35 -37 0 -7 -8 -15 -17 -19 -24 -8 -73
-51 -73 -65 0 -7 246 -10 833 -8 l832 3 64 28 c108 48 205 123 304 235 45 51
46 66 7 82 -17 7 -34 18 -38 25 -4 7 -20 16 -36 21 l-28 10 53 64 c30 36 62
72 72 81 17 16 16 17 -15 30 -18 7 -42 14 -53 15 -11 0 -27 2 -36 3 -9 0 -21
12 -27 25 -6 14 -21 30 -34 36 -21 10 -21 10 -5 -3 17 -14 16 -15 -7 -13 -13
0 -22 4 -19 9 6 9 -10 9 -23 -1 -5 -4 11 11 36 33 137 121 268 265 241 265 -5
0 -11 7 -13 17 -2 10 -25 22 -65 34 -64 18 -202 111 -203 137 0 6 -7 12 -15
12 -8 0 -15 8 -15 18 0 24 99 68 187 83 77 13 195 6 267 -16 40 -12 51 -13 58
-3 9 15 11 691 2 738 -6 26 -16 36 -58 55 -82 38 -154 65 -170 65 -9 0 -16 4
-16 8 0 5 -18 14 -40 21 -22 6 -40 16 -40 21 0 6 -18 10 -40 10 -23 0 -40 5
-40 11 0 22 226 235 318 299 l92 65 0 67 c0 77 5 74 -98 57z"/>
<path d="M3576 397 c-16 -12 -16 -13 2 -13 10 0 19 6 19 13 0 7 -1 13 -2 13
-1 0 -9 -6 -19 -13z"/>
<path d="M3655 360 c-3 -5 -1 -10 4 -10 6 0 11 5 11 10 0 6 -2 10 -4 10 -3 0
-8 -4 -11 -10z"/>
</g>
</svg>
